<?xml version="1.0" standalone="no"?>
<!DOCTYPE svg PUBLIC "-//W3C//DTD SVG 20010904//EN"
 "http://www.w3.org/TR/2001/REC-SVG-20010904/DTD/svg10.dtd">
<svg version="1.0" xmlns="http://www.w3.org/2000/svg"
 width="500.000000pt" height="500.000000pt" viewBox="0 0 500.000000 500.000000"
 preserveAspectRatio="xMidYMid meet">
<metadata>
Created by potrace 1.14, written by Peter Selinger 2001-2017
</metadata>
<g transform="translate(0.000000,500.000000) scale(0.100000,-0.100000)"
fill="#000000" stroke="none">
<path d="M2143 3541 c-6 -3 -9 -20 -7 -37 l2 -31 -40 7 c-35 7 -41 5 -45 -11
-5 -16 -12 -19 -44 -15 l-39 4 0 -38 c0 -37 -19 -58 -42 -44 -5 3 -12 -3 -15
-15 -3 -14 -13 -21 -29 -21 l-24 0 0 -420 0 -420 48 -1 c82 -1 144 -10 247
-35 104 -25 271 -99 303 -134 28 -30 58 -33 75 -7 15 24 138 88 227 119 81 28
185 49 275 54 44 3 85 7 90 8 6 2 10 150 10 417 l0 414 -29 3 c-22 3 -27 8
-23 23 4 16 0 19 -28 19 -32 0 -33 1 -28 35 3 21 0 36 -6 36 -6 1 -26 2 -43 3
-22 1 -33 6 -33 16 0 17 -17 19 -57 9 -27 -7 -28 -6 -28 28 0 35 -1 36 -34 30
-133 -22 -261 -146 -308 -300 l-21 -71 -13 52 c-27 104 -103 215 -179 262 -49
30 -151 69 -162 61z"/>
<path d="M1225 2081 c-29 -12 -46 -35 -49 -68 -4 -38 14 -61 71 -92 32 -18 48
-32 48 -46 0 -27 -32 -31 -72 -10 -30 17 -33 17 -49 0 -16 -16 -15 -18 10 -43
22 -23 35 -27 80 -27 121 2 139 113 26 170 -35 18 -50 31 -50 45 0 24 35 27
67 5 18 -13 22 -12 39 6 17 19 17 20 -3 40 -22 23 -87 34 -118 20z"/>
<path d="M1585 2075 c-43 -20 -59 -36 -74 -71 -34 -85 -6 -160 76 -203 43 -22
126 -9 165 26 16 14 16 16 -5 33 -19 16 -24 16 -42 4 -53 -37 -130 0 -141 69
-5 32 -1 41 26 68 27 28 36 31 72 26 22 -3 45 -11 49 -19 7 -10 13 -8 30 8 26
26 19 41 -27 60 -42 18 -90 17 -129 -1z"/>
<path d="M1970 2071 c-69 -36 -102 -129 -69 -194 33 -66 121 -101 193 -77 38
12 95 70 97 98 1 9 3 28 4 41 1 14 -3 38 -10 55 -35 84 -136 120 -215 77z
m132 -71 c27 -28 30 -35 24 -72 -9 -58 -55 -88 -111 -74 -31 8 -66 62 -61 92
16 84 90 111 148 54z"/>
<path d="M2338 2048 c-2 -24 -2 -91 0 -150 l3 -108 82 0 83 0 2 30 c2 30 2 30
-51 30 l-53 0 0 118 1 117 -32 3 c-31 3 -32 2 -35 -40z"/>
<path d="M2721 2033 c-13 -32 -27 -67 -31 -78 -23 -51 -60 -149 -60 -157 0 -4
14 -8 30 -8 23 0 33 6 40 25 9 22 15 25 64 25 49 0 54 -2 60 -25 5 -21 12 -25
42 -25 25 0 35 4 31 13 -3 6 -24 59 -47 117 -63 160 -68 170 -88 170 -13 0
-25 -17 -41 -57z m57 -88 c18 -38 15 -45 -17 -45 -29 0 -29 1 -18 35 12 42 20
44 35 10z"/>
<path d="M3033 1941 l1 -151 33 0 c31 0 32 2 31 38 -1 92 15 97 55 17 25 -51
29 -55 62 -55 19 0 35 2 35 5 0 5 -29 58 -51 92 -10 17 -8 25 11 51 31 41 29
88 -4 121 -22 22 -37 26 -100 29 l-73 4 0 -151z m121 83 c38 -14 7 -68 -35
-62 -21 3 -28 24 -20 63 1 7 36 6 55 -1z"/>
<path d="M3390 1941 l0 -151 29 0 c16 0 31 6 33 13 2 6 4 73 3 147 l-1 135
-32 3 -32 3 0 -150z"/>
<path d="M3600 2084 c0 -3 16 -37 36 -75 41 -77 42 -67 -15 -166 l-30 -53 37
0 c36 0 39 3 63 52 l25 51 26 -49 c23 -43 30 -49 62 -52 20 -2 36 0 36 5 0 4
-18 39 -39 78 l-39 70 22 40 c11 22 23 42 26 45 7 7 30 49 30 55 0 3 -16 5
-35 5 -32 0 -37 -4 -57 -45 -12 -25 -25 -45 -28 -45 -3 0 -16 20 -28 45 -20
41 -25 45 -57 45 -19 0 -35 -3 -35 -6z"/>
</g>
</svg>
