<svg xmlns="http://www.w3.org/2000/svg" xmlns:xlink="http://www.w3.org/1999/xlink" width="500" zoomAndPan="magnify" viewBox="0 0 375 374.999991" height="500" preserveAspectRatio="xMidYMid meet" version="1.0"><defs><g/><clipPath id="b9bac10a86"><path d="M 160 109.207031 L 188 109.207031 L 188 187 L 160 187 Z M 160 109.207031 " clip-rule="nonzero"/></clipPath><clipPath id="abab0e0016"><path d="M 139.675781 124.292969 L 187.703125 124.292969 L 187.703125 202.199219 L 139.675781 202.199219 Z M 139.675781 124.292969 " clip-rule="nonzero"/></clipPath><clipPath id="0e5ef7a187"><path d="M 187 109.207031 L 216 109.207031 L 216 187 L 187 187 Z M 187 109.207031 " clip-rule="nonzero"/></clipPath><clipPath id="dcc57fb200"><path d="M 187.476562 124.292969 L 235.613281 124.292969 L 235.613281 202.199219 L 187.476562 202.199219 Z M 187.476562 124.292969 " clip-rule="nonzero"/></clipPath><clipPath id="ebf886f9df"><path d="M 185 137.578125 L 190.40625 137.578125 L 190.40625 202.199219 L 185 202.199219 Z M 185 137.578125 " clip-rule="nonzero"/></clipPath></defs><g clip-path="url(#b9bac10a86)"><path fill="#2b2b2b" d="M 160.257812 109.238281 C 160.257812 109.238281 184.089844 111.148438 187.644531 139.445312 L 187.644531 186.996094 C 187.644531 186.996094 177.253906 171.714844 160.257812 172.363281 L 160.257812 109.238281 " fill-opacity="1" fill-rule="nonzero"/></g><path fill="#ffffff" d="M 153.808594 113.660156 C 153.808594 113.660156 180.753906 113.660156 187.644531 139.445312 L 187.644531 191.417969 C 187.644531 191.417969 174.808594 176.132812 153.808594 176.785156 L 153.808594 113.660156 " fill-opacity="1" fill-rule="nonzero"/><path fill="#2b2b2b" d="M 147.828125 115.734375 C 147.828125 115.734375 179.058594 115.734375 187.644531 139.445312 L 187.644531 193.492188 C 187.644531 193.492188 172.539062 178.207031 147.828125 178.859375 L 147.828125 115.734375 " fill-opacity="1" fill-rule="nonzero"/><path fill="#ffffff" d="M 143.5625 121.847656 C 143.5625 121.847656 172.226562 120.261719 187.644531 139.445312 L 187.644531 200.207031 C 187.644531 200.207031 170.921875 184.921875 143.5625 185.574219 L 143.5625 121.847656 " fill-opacity="1" fill-rule="nonzero"/><g clip-path="url(#abab0e0016)"><path fill="#f39200" d="M 187.648438 139.429688 L 187.644531 202.199219 C 187.644531 202.199219 169.445312 186.914062 139.675781 187.566406 L 139.675781 124.441406 C 139.675781 124.441406 143.460938 124.480469 149.039062 125.097656 C 151.285156 125.347656 153.824219 125.6875 156.527344 126.15625 C 166.992188 127.976562 179.882812 131.722656 187.648438 139.429688 " fill-opacity="1" fill-rule="nonzero"/></g><path fill="#2b2b2b" d="M 156.527344 126.15625 L 156.527344 153.226562 L 152.785156 149.261719 L 149.039062 151 L 149.039062 125.097656 C 151.285156 125.347656 153.824219 125.6875 156.527344 126.15625 " fill-opacity="1" fill-rule="nonzero"/><g clip-path="url(#0e5ef7a187)"><path fill="#2b2b2b" d="M 215.027344 109.207031 C 215.027344 109.207031 191.199219 111.113281 187.644531 139.414062 L 187.644531 186.964844 C 187.644531 186.964844 198.03125 171.679688 215.027344 172.332031 L 215.027344 109.207031 " fill-opacity="1" fill-rule="nonzero"/></g><path fill="#ffffff" d="M 221.476562 113.625 C 221.476562 113.625 194.535156 113.625 187.644531 139.414062 L 187.644531 191.382812 C 187.644531 191.382812 200.480469 176.097656 221.476562 176.753906 L 221.476562 113.625 " fill-opacity="1" fill-rule="nonzero"/><path fill="#2b2b2b" d="M 227.460938 115.699219 C 227.460938 115.699219 196.226562 115.699219 187.644531 139.414062 L 187.644531 193.457031 C 187.644531 193.457031 202.75 178.171875 227.460938 178.828125 L 227.460938 115.699219 " fill-opacity="1" fill-rule="nonzero"/><path fill="#ffffff" d="M 231.722656 121.8125 C 231.722656 121.8125 203.058594 120.230469 187.644531 139.414062 L 187.644531 200.171875 C 187.644531 200.171875 204.367188 184.886719 231.722656 185.539062 L 231.722656 121.8125 " fill-opacity="1" fill-rule="nonzero"/><g clip-path="url(#dcc57fb200)"><path fill="#2b2b2b" d="M 235.613281 124.40625 C 235.613281 124.40625 202.382812 124.761719 187.640625 139.394531 L 187.644531 202.164062 C 187.644531 202.164062 205.84375 186.878906 235.613281 187.53125 L 235.613281 124.40625 " fill-opacity="1" fill-rule="nonzero"/></g><g clip-path="url(#ebf886f9df)"><path fill="#ffffff" d="M 188.746094 202.199219 L 186.542969 202.199219 C 185.730469 202.199219 185.074219 201.542969 185.074219 200.734375 L 185.074219 137.601562 L 190.210938 137.601562 L 190.210938 200.734375 C 190.210938 201.542969 189.554688 202.199219 188.746094 202.199219 " fill-opacity="1" fill-rule="nonzero"/></g><path fill="#ffffff" d="M 190.203125 137.621094 L 190.582031 136.804688 L 189.480469 137.601562 Z M 190.203125 137.621094 " fill-opacity="1" fill-rule="nonzero"/><path fill="#ffffff" d="M 185.082031 137.621094 L 184.707031 136.804688 L 185.804688 137.601562 Z M 185.082031 137.621094 " fill-opacity="1" fill-rule="nonzero"/><path fill="#ffffff" d="M 226.207031 147.667969 L 226.207031 149.621094 C 214.621094 150.691406 203.667969 154.886719 202.066406 155.523438 L 202.066406 153.4375 C 205.160156 152.265625 215.429688 148.632812 226.207031 147.667969 " fill-opacity="1" fill-rule="nonzero"/><path fill="#ffffff" d="M 226.207031 153.226562 L 226.207031 155.179688 C 214.621094 156.25 203.667969 160.449219 202.066406 161.082031 L 202.066406 158.996094 C 205.160156 157.828125 215.429688 154.191406 226.207031 153.226562 " fill-opacity="1" fill-rule="nonzero"/><path fill="#ffffff" d="M 226.207031 158.8125 L 226.207031 160.765625 C 214.621094 161.835938 203.667969 166.035156 202.066406 166.664062 L 202.066406 164.582031 C 205.160156 163.410156 215.429688 159.777344 226.207031 158.8125 " fill-opacity="1" fill-rule="nonzero"/><g fill="#2b2b2b" fill-opacity="1"><g transform="translate(86.137503, 239.461698)"><g><path d="M 8.59375 0.609375 C 6.84375 0.609375 5.269531 0.21875 3.875 -0.5625 C 2.476562 -1.351562 1.351562 -2.488281 0.5 -3.96875 L 3.9375 -6.84375 C 5.101562 -4.75 6.644531 -3.703125 8.5625 -3.703125 C 9.414062 -3.703125 10.101562 -3.910156 10.625 -4.328125 C 11.15625 -4.742188 11.421875 -5.289062 11.421875 -5.96875 C 11.421875 -6.59375 11.160156 -7.132812 10.640625 -7.59375 C 10.128906 -8.050781 9.195312 -8.570312 7.84375 -9.15625 C 5.757812 -10.082031 4.238281 -11.113281 3.28125 -12.25 C 2.332031 -13.382812 1.859375 -14.738281 1.859375 -16.3125 C 1.859375 -17.289062 2.035156 -18.195312 2.390625 -19.03125 C 2.753906 -19.863281 3.257812 -20.578125 3.90625 -21.171875 C 4.5625 -21.765625 5.335938 -22.222656 6.234375 -22.546875 C 7.128906 -22.878906 8.117188 -23.046875 9.203125 -23.046875 C 12.046875 -23.046875 14.457031 -21.820312 16.4375 -19.375 L 13.171875 -16.40625 C 12.546875 -17.238281 11.914062 -17.847656 11.28125 -18.234375 C 10.65625 -18.628906 9.960938 -18.828125 9.203125 -18.828125 C 8.453125 -18.828125 7.859375 -18.640625 7.421875 -18.265625 C 6.984375 -17.898438 6.765625 -17.40625 6.765625 -16.78125 C 6.765625 -16.082031 7.054688 -15.507812 7.640625 -15.0625 C 8.222656 -14.613281 9.101562 -14.128906 10.28125 -13.609375 C 12.40625 -12.660156 13.945312 -11.609375 14.90625 -10.453125 C 15.863281 -9.296875 16.34375 -7.929688 16.34375 -6.359375 C 16.34375 -5.328125 16.148438 -4.382812 15.765625 -3.53125 C 15.378906 -2.675781 14.847656 -1.941406 14.171875 -1.328125 C 13.503906 -0.710938 12.691406 -0.238281 11.734375 0.09375 C 10.785156 0.4375 9.738281 0.609375 8.59375 0.609375 Z M 8.59375 0.609375 "/></g></g></g><g fill="#2b2b2b" fill-opacity="1"><g transform="translate(110.760285, 239.461698)"><g><path d="M 12.90625 0.46875 C 11.21875 0.46875 9.65625 0.175781 8.21875 -0.40625 C 6.78125 -0.988281 5.539062 -1.800781 4.5 -2.84375 C 3.457031 -3.882812 2.640625 -5.125 2.046875 -6.5625 C 1.460938 -8 1.171875 -9.5625 1.171875 -11.25 C 1.171875 -12.9375 1.46875 -14.5 2.0625 -15.9375 C 2.664062 -17.375 3.488281 -18.617188 4.53125 -19.671875 C 5.570312 -20.722656 6.804688 -21.546875 8.234375 -22.140625 C 9.660156 -22.742188 11.207031 -23.046875 12.875 -23.046875 C 14.625 -23.046875 16.25 -22.707031 17.75 -22.03125 C 19.257812 -21.351562 20.5625 -20.390625 21.65625 -19.140625 L 18.21875 -15.796875 C 17.570312 -16.554688 16.804688 -17.15625 15.921875 -17.59375 C 15.035156 -18.039062 14.0625 -18.265625 13 -18.265625 C 12.039062 -18.265625 11.15625 -18.085938 10.34375 -17.734375 C 9.53125 -17.390625 8.828125 -16.90625 8.234375 -16.28125 C 7.640625 -15.664062 7.175781 -14.929688 6.84375 -14.078125 C 6.519531 -13.222656 6.359375 -12.300781 6.359375 -11.3125 C 6.359375 -10.300781 6.523438 -9.367188 6.859375 -8.515625 C 7.203125 -7.671875 7.671875 -6.929688 8.265625 -6.296875 C 8.859375 -5.671875 9.570312 -5.179688 10.40625 -4.828125 C 11.238281 -4.484375 12.148438 -4.3125 13.140625 -4.3125 C 14.210938 -4.3125 15.195312 -4.535156 16.09375 -4.984375 C 17 -5.429688 17.765625 -6.039062 18.390625 -6.8125 L 21.828125 -3.53125 C 20.753906 -2.25 19.457031 -1.257812 17.9375 -0.5625 C 16.425781 0.125 14.75 0.46875 12.90625 0.46875 Z M 12.90625 0.46875 "/></g></g></g><g fill="#2b2b2b" fill-opacity="1"><g transform="translate(140.266606, 239.461698)"><g><path d="M 12.828125 0.46875 C 11.171875 0.46875 9.632812 0.164062 8.21875 -0.4375 C 6.800781 -1.039062 5.570312 -1.867188 4.53125 -2.921875 C 3.488281 -3.984375 2.664062 -5.226562 2.0625 -6.65625 C 1.46875 -8.082031 1.171875 -9.625 1.171875 -11.28125 C 1.171875 -12.945312 1.46875 -14.5 2.0625 -15.9375 C 2.664062 -17.375 3.488281 -18.617188 4.53125 -19.671875 C 5.570312 -20.722656 6.800781 -21.546875 8.21875 -22.140625 C 9.632812 -22.742188 11.171875 -23.046875 12.828125 -23.046875 C 14.472656 -23.046875 16.007812 -22.742188 17.4375 -22.140625 C 18.863281 -21.546875 20.097656 -20.722656 21.140625 -19.671875 C 22.179688 -18.617188 23 -17.375 23.59375 -15.9375 C 24.1875 -14.5 24.484375 -12.945312 24.484375 -11.28125 C 24.484375 -9.625 24.1875 -8.082031 23.59375 -6.65625 C 23 -5.226562 22.179688 -3.984375 21.140625 -2.921875 C 20.097656 -1.867188 18.863281 -1.039062 17.4375 -0.4375 C 16.007812 0.164062 14.472656 0.46875 12.828125 0.46875 Z M 12.828125 -4.3125 C 13.773438 -4.3125 14.640625 -4.484375 15.421875 -4.828125 C 16.210938 -5.179688 16.894531 -5.671875 17.46875 -6.296875 C 18.039062 -6.929688 18.488281 -7.671875 18.8125 -8.515625 C 19.132812 -9.367188 19.296875 -10.289062 19.296875 -11.28125 C 19.296875 -12.269531 19.132812 -13.191406 18.8125 -14.046875 C 18.488281 -14.898438 18.039062 -15.632812 17.46875 -16.25 C 16.894531 -16.875 16.210938 -17.363281 15.421875 -17.71875 C 14.640625 -18.082031 13.773438 -18.265625 12.828125 -18.265625 C 11.890625 -18.265625 11.023438 -18.082031 10.234375 -17.71875 C 9.453125 -17.363281 8.773438 -16.875 8.203125 -16.25 C 7.628906 -15.632812 7.175781 -14.898438 6.84375 -14.046875 C 6.519531 -13.191406 6.359375 -12.269531 6.359375 -11.28125 C 6.359375 -10.289062 6.519531 -9.367188 6.84375 -8.515625 C 7.175781 -7.671875 7.628906 -6.9375 8.203125 -6.3125 C 8.773438 -5.695312 9.453125 -5.207031 10.234375 -4.84375 C 11.023438 -4.488281 11.890625 -4.3125 12.828125 -4.3125 Z M 12.828125 -4.3125 "/></g></g></g><g fill="#2b2b2b" fill-opacity="1"><g transform="translate(172.938805, 239.461698)"><g><path d="M 2.53125 -22.578125 L 7.4375 -22.578125 L 7.4375 -4.609375 L 15.265625 -4.609375 L 15.265625 0 L 2.53125 0 Z M 2.53125 -22.578125 "/></g></g></g><g fill="#2b2b2b" fill-opacity="1"><g transform="translate(196.214404, 239.461698)"><g><path d="M 9.234375 -22.96875 L 12.359375 -22.96875 L 21.25 0 L 16.0625 0 L 14.6875 -3.8125 L 6.90625 -3.8125 L 5.5625 0 L 0.34375 0 Z M 13.171875 -8.046875 L 10.8125 -14.6875 L 8.421875 -8.046875 Z M 13.171875 -8.046875 "/></g></g></g><g fill="#2b2b2b" fill-opacity="1"><g transform="translate(224.811379, 239.461698)"><g><path d="M 2.53125 -22.578125 L 9.59375 -22.578125 C 10.769531 -22.578125 11.851562 -22.394531 12.84375 -22.03125 C 13.84375 -21.675781 14.703125 -21.171875 15.421875 -20.515625 C 16.140625 -19.859375 16.703125 -19.082031 17.109375 -18.1875 C 17.515625 -17.289062 17.71875 -16.316406 17.71875 -15.265625 C 17.71875 -13.910156 17.390625 -12.6875 16.734375 -11.59375 C 16.085938 -10.507812 15.191406 -9.664062 14.046875 -9.0625 L 19.34375 0 L 13.609375 0 L 9.234375 -7.921875 L 7.4375 -7.921875 L 7.4375 0 L 2.53125 0 Z M 9.359375 -12.265625 C 10.421875 -12.265625 11.257812 -12.523438 11.875 -13.046875 C 12.488281 -13.578125 12.796875 -14.304688 12.796875 -15.234375 C 12.796875 -16.148438 12.484375 -16.832031 11.859375 -17.28125 C 11.234375 -17.726562 10.398438 -17.953125 9.359375 -17.953125 L 7.4375 -17.953125 L 7.4375 -12.265625 Z M 9.359375 -12.265625 "/></g></g></g><g fill="#2b2b2b" fill-opacity="1"><g transform="translate(251.657019, 239.461698)"><g><path d="M 2.53125 -22.578125 L 7.4375 -22.578125 L 7.4375 0 L 2.53125 0 Z M 2.53125 -22.578125 "/></g></g></g><g fill="#f39200" fill-opacity="1"><g transform="translate(268.645307, 239.461698)"><g><path d="M 6.90625 -11.109375 L 0.8125 -22.578125 L 6.4375 -22.578125 L 10.28125 -15.09375 L 14.21875 -22.578125 L 19.578125 -22.578125 L 13.375 -11.59375 L 19.703125 0 L 14.078125 0 L 10 -7.640625 L 5.859375 0 L 0.5 0 Z M 6.90625 -11.109375 "/></g></g></g><g fill="#2b2b2b" fill-opacity="1"><g transform="translate(156.132859, 177.48017)"><g><path d="M 6.59375 -10.625 L 0.765625 -21.5625 L 6.140625 -21.5625 L 9.8125 -14.421875 L 13.578125 -21.5625 L 18.703125 -21.5625 L 12.78125 -11.078125 L 18.828125 0 L 13.453125 0 L 9.5625 -7.3125 L 5.59375 0 L 0.484375 0 Z M 6.59375 -10.625 "/></g></g></g></svg>